<svg width="20" height="20" viewBox="0 0 20 20" fill="none" xmlns="http://www.w3.org/2000/svg">
<path d="M10 1.75C9.5075 1.75 9.0199 1.847 8.5649 2.03545C8.11 2.22391 7.69657 2.50013 7.34835 2.84835C7.00013 3.19657 6.72391 3.60997 6.53545 4.06494C6.347 4.51991 6.25 5.00754 6.25 5.5C6.25 5.99246 6.347 6.48009 6.53545 6.93506C6.72391 7.39003 7.00013 7.80343 7.34835 8.15165C7.69657 8.4999 8.11 8.7761 8.5649 8.9645C9.0199 9.153 9.5075 9.25 10 9.25C10.4925 9.25 10.9801 9.153 11.4351 8.9645C11.89 8.7761 12.3034 8.4999 12.6517 8.15165C12.9999 7.80343 13.2761 7.39003 13.4645 6.93506C13.653 6.48009 13.75 5.99246 13.75 5.5C13.75 5.00754 13.653 4.51991 13.4645 4.06494C13.2761 3.60997 12.9999 3.19657 12.6517 2.84835C12.3034 2.50013 11.89 2.22391 11.4351 2.03545C10.9801 1.847 10.4925 1.75 10 1.75Z" fill="#8F8C9D"/>
<path d="M5 10.75C4.50754 10.75 4.01991 10.847 3.56494 11.0355C3.10997 11.2239 2.69657 11.5001 2.34835 11.8483C2.00013 12.1966 1.72391 12.61 1.53545 13.0649C1.347 13.5199 1.25 14.0075 1.25 14.5C1.25 14.9925 1.347 15.4801 1.53545 15.9351C1.72391 16.39 2.00013 16.8034 2.34835 17.1516C2.69657 17.4999 3.10997 17.7761 3.56494 17.9645C4.01991 18.153 4.50754 18.25 5 18.25C5.49246 18.25 5.98009 18.153 6.43506 17.9645C6.89003 17.7761 7.30343 17.4999 7.65165 17.1516C7.99987 16.8034 8.2761 16.39 8.4645 15.9351C8.653 15.4801 8.75 14.9925 8.75 14.5C8.75 14.0075 8.653 13.5199 8.4645 13.0649C8.2761 12.61 7.99987 12.1966 7.65165 11.8483C7.30343 11.5001 6.89003 11.2239 6.43506 11.0355C5.98009 10.847 5.49246 10.75 5 10.75Z" fill="#667085"/>
<path d="M15 10.75C14.5075 10.75 14.0199 10.847 13.5649 11.0355C13.11 11.2239 12.6966 11.5001 12.3483 11.8483C12.0001 12.1966 11.7239 12.61 11.5355 13.0649C11.347 13.5199 11.25 14.0075 11.25 14.5C11.25 14.9925 11.347 15.4801 11.5355 15.9351C11.7239 16.39 12.0001 16.8034 12.3483 17.1516C12.6966 17.4999 13.11 17.7761 13.5649 17.9645C14.0199 18.153 14.5075 18.25 15 18.25C15.4925 18.25 15.9801 18.153 16.4351 17.9645C16.89 17.7761 17.3034 17.4999 17.6517 17.1516C17.9999 16.8034 18.2761 16.39 18.4645 15.9351C18.653 15.4801 18.75 14.9925 18.75 14.5C18.75 14.0075 18.653 13.5199 18.4645 13.0649C18.2761 12.61 17.9999 12.1966 17.6517 11.8483C17.3034 11.5001 16.89 11.2239 16.4351 11.0355C15.9801 10.847 15.4925 10.75 15 10.75Z" fill="#667085"/>
</svg>
